:SAMPLES-PER-SECOND 30
:FULLY-SPECIFIED
:DEGREES
195
root  15.8018 37.0807 -0.136175 -45.7627 84.6737 -42.0103
RightUpLeg  -22.2489 -1.44745 3.68996
RightLeg  31.2358 2.40236 1.31684
RightFoot  -4.9361 0.0541328 -1.55229
RightToes  -1.33073e-015 0 -3.6325e-017
Spine  4.17167 -1.04325 10.7
Spine1  7.88273 -0.924061 3.27668
HEad  -12.3086 5.1879 -11.3922
LeftShoulder1  -0.556706 4.92758 -32.9397
LeftArm  7.81284 6.28014 -45.936
LeftForeArm  23.2615 -28.0841 -4.79921
LeftHand  -0.0259638 5.50616 1.67542
RightShoulder  -1.20651 -6.49562 33.7318
RightArm  20.6958 -11.7216 37.6343
RightForeArm  11.1014 15.8949 5.04868
RightHand  -0.31851 5.91304 -3.43721
LeftUpLeg  8.69916 1.46745 5.94538
LeftLeg  48.3845 -2.7732 -2.8404
LeftFoot  3.11531 0.964261 -8.21891
LeftToes  -1.63346e-009 7.54925e-011 9.86887e-012
196
root  17.1642 37.1385 0.193412 -68.9375 85.2954 -65.0739
RightUpLeg  -20.2587 -2.2978 4.61065
RightLeg  32.6894 1.25494 0.612015
RightFoot  -7.73597 0.0158861 -2.15287
RightToes  -1.33073e-015 0 -3.6325e-017
Spine  4.70634 -1.06598 12.4197
Spine1  7.92569 -0.473117 3.20803
HEad  -13.9206 4.51642 -12.1786
LeftShoulder1  -0.607994 5.02093 -33.9216
LeftArm  11.0381 8.09347 -45.1751
LeftForeArm  22.0885 -26.8736 -4.59341
LeftHand  -0.0210603 6.01574 1.74283
RightShoulder  -1.40073 -6.87199 35.0007
RightArm  10.8176 -13.3936 38.938
RightForeArm  17.2389 6.48827 5.70571
RightHand  -0.0645797 3.7726 -1.04658
LeftUpLeg  2.55727 0.272076 7.05209
LeftLeg  57.0705 -1.15408 -1.46085
LeftFoot  13.8357 1.02542 -4.77943
LeftToes  -1.63346e-009 7.54925e-011 9.86887e-012
197
root  18.5975 37.4593 0.488221 -85.8593 85.8219 -81.8602
RightUpLeg  -16.9154 -3.52376 4.56793
RightLeg  31.7319 1.20959 0.547508
RightFoot  -9.72627 -0.030587 -2.45065
RightToes  -1.33073e-015 0 -3.6325e-017
Spine  4.6038 -0.596206 13.8632
Spine1  8.35296 0.509657 1.61146
HEad  -15.3414 2.69434 -12.772
LeftShoulder1  -0.609396 5.00052 -34.5413
LeftArm  14.071 9.64254 -44.1151
LeftForeArm  22.2139 -25.2807 -4.21773
LeftHand  -0.0262788 5.93511 1.17183
RightShoulder  -1.50756 -7.07851 35.5825
RightArm  7.91089 -16.2092 40.5842
RightForeArm  12.4214 3.19334 4.41221
RightHand  -0.371419 6.13932 -4.09328
LeftUpLeg  -2.71275 -0.194145 7.13462
LeftLeg  62.5808 -1.14739 -1.81569
LeftFoot  9.56079 0.486977 -2.97427
LeftToes  -1.63346e-009 7.54925e-011 9.86887e-012
198
root  20.0191 37.8095 0.736171 -103.048 86.4768 -99.235
RightUpLeg  -13.5782 -4.74906 3.91963
RightLeg  29.9686 1.31937 0.570217
RightFoot  -11.3277 -0.0760773 -2.31962
RightToes  -1.33073e-015 0 -3.6325e-017
Spine  4.37274 -0.226812 14.671
Spine1  8.39098 1.34742 -0.219648
HEad  -16.1633 1.10875 -13.4286
LeftShoulder1  -0.626246 5.04225 -34.5327
LeftArm  16.1315 11.888 -42.7104
LeftForeArm  21.9153 -23.6061 -4.02905
LeftHand  -0.0285902 6.72198 0.586905
RightShoulder  -1.44935 -6.94017 35.5716
RightArm  7.43923 -19.4647 41.3873
RightForeArm  9.95398 4.85904 4.29651
RightHand  -0.515354 6.93941 -5.20391
LeftUpLeg  -7.9904 -0.624669 6.20502
LeftLeg  64.4733 -1.49432 -2.76366
LeftFoot  7.30141 0.329085 -2.2816
LeftToes  -1.63346e-009 7.54925e-011 9.86887e-012
199
root  21.4429 38.1527 0.933855 -120.308 87.0846 -116.732
RightUpLeg  -10.0501 -5.85968 2.9652
RightLeg  27.5645 1.82379 0.777279
RightFoot  -12.5455 -0.107228 -2.11375
RightToes  -1.33073e-015 0 -3.6325e-017
Spine  4.12195 0.245605 15.3068
Spine1  8.19478 2.26376 -2.22915
HEad  -16.6288 0.0197492 -14.1307
LeftShoulder1  -0.608375 5.00246 -34.4213
LeftArm  15.3648 14.1041 -40.9929
LeftForeArm  22.2551 -20.9337 -4.58529
LeftHand  -0.0319924 6.49596 0.326988
RightShoulder  -1.4761 -7.00289 35.588
RightArm  9.47354 -21.4673 40.8178
RightForeArm  9.15776 8.68401 4.94825
RightHand  -0.507255 6.88197 -5.14576
LeftUpLeg  -12.5882 -0.753431 4.775
LeftLeg  63.1667 -1.7168 -3.07309
LeftFoot  5.30529 0.247968 -1.91843
LeftToes  -1.63346e-009 7.54925e-011 9.86887e-012
200
root  22.8764 38.4894 1.10859 -132.061 87.9681 -128.503
RightUpLeg  -6.0495 -7.16156 1.62474
RightLeg  24.5963 3.3909 1.4822
RightFoot  -13.3269 -0.125572 -2.04748
RightToes  -1.33073e-015 0 -3.6325e-017
Spine  4.04794 0.855373 15.1767
Spine1  8.08466 3.14633 -3.77586
HEad  -17.1393 -0.751431 -14.9776
LeftShoulder1  -0.579112 4.93663 -34.2553
LeftArm  10.6296 16.3728 -39.1097
LeftForeArm  25.3141 -17.9203 -6.07739
LeftHand  -0.0553652 7.54857 -0.602184
RightShoulder  -1.4709 -7.02208 35.197
RightArm  13.6036 -21.5192 40.0964
RightForeArm  9.57372 12.163 5.65626
RightHand  -0.460451 6.15943 -4.91509
LeftUpLeg  -15.8032 -0.185419 3.15889
LeftLeg  58.6177 -2.09271 -3.17618
LeftFoot  2.30189 0.202869 -1.8153
LeftToes  -1.63346e-009 7.54925e-011 9.86887e-012
201
root  24.2573 38.7299 1.28808 -153.175 88.6576 -149.919
RightUpLeg  -2.47202 -8.52279 0.300826
RightLeg  21.6454 5.12932 2.18642
RightFoot  -13.9816 -0.139316 -1.94543
RightToes  -1.33073e-015 0 -3.6325e-017
Spine  3.83384 1.48777 14.5462
Spine1  7.81126 3.77375 -4.68796
HEad  -17.6304 -0.868989 -15.1406
LeftShoulder1  -0.548259 4.85126 -34.5161
LeftArm  3.76612 17.9425 -36.9597
LeftForeArm  30.4657 -13.6832 -7.73052
LeftHand  -0.0954116 8.60036 -1.69727
RightShoulder  -1.26826 -6.63627 33.9247
RightArm  17.853 -20.4036 39.9354
RightForeArm  9.90875 14.5961 5.79171
RightHand  -0.268266 5.2576 -3.24986
LeftUpLeg  -18.573 0.404736 1.73198
LeftLeg  51.6907 -2.24728 -2.61504
LeftFoot  0.0266644 0.13758 -1.37791
LeftToes  -1.63346e-009 7.54925e-011 9.86887e-012
202
root  25.6328 38.9027 1.45296 161.822 89.383 164.936
RightUpLeg  1.28025 -9.18392 -0.999273
RightLeg  18.5692 6.63987 2.63267
RightFoot  -14.4379 -0.153133 -2.04536
RightToes  -1.33073e-015 0 -3.6325e-017
Spine  3.51871 2.16978 14.0071
Spine1  8.10633 4.59029 -6.15721
HEad  -18.7033 -1.30203 -14.8843
LeftShoulder1  -0.47022 4.67001 -34.1605
LeftArm  -2.17454 19.2283 -35.485
LeftForeArm  34.8382 -9.45655 -8.29267
LeftHand  -0.0933765 8.2828 -1.76024
RightShoulder  -1.21724 -6.53635 33.5653
RightArm  21.551 -17.0103 39.0972
RightForeArm  8.3515 15.1026 6.26713
RightHand  -0.2893 5.68217 -3.34983
LeftUpLeg  -19.864 1.52937 0.473142
LeftLeg  41.9815 -1.95528 -1.52574
LeftFoot  -0.535241 0.0715684 -0.736308
LeftToes  -1.63346e-009 7.54925e-011 9.86887e-012
